<svg width="30" height="30" viewBox="0 0 30 30" fill="none" xmlns="http://www.w3.org/2000/svg">
<g clip-path="url(#clip0_86_5)">
<path d="M8.45 6.05L6.2 3.8125L4.4375 5.575L6.675 7.8125L8.45 6.05ZM5 13.125H1.25V15.625H5V13.125ZM16.25 0.6875H13.75V4.375H16.25V0.6875V0.6875ZM25.5625 5.575L23.8 3.8125L21.5625 6.05L23.325 7.8125L25.5625 5.575ZM21.55 22.7L23.7875 24.95L25.55 23.1875L23.3 20.95L21.55 22.7ZM25 13.125V15.625H28.75V13.125H25ZM15 6.875C10.8625 6.875 7.5 10.2375 7.5 14.375C7.5 18.5125 10.8625 21.875 15 21.875C19.1375 21.875 22.5 18.5125 22.5 14.375C22.5 10.2375 19.1375 6.875 15 6.875ZM13.75 28.0625H16.25V24.375H13.75V28.0625ZM4.4375 23.175L6.2 24.9375L8.4375 22.6875L6.675 20.925L4.4375 23.175Z" fill="white"/>
</g>
<defs>
<clipPath id="clip0_86_5">
<rect width="30" height="30" fill="white"/>
</clipPath>
</defs>
</svg>
